<svg xmlns="http://www.w3.org/2000/svg" viewBox="0 0 128 128" fill="none">
  <circle cx="64" cy="64" r="58" fill="#102018"/>
  <circle cx="64" cy="64" r="58" fill="none" stroke="#3DDC97" stroke-opacity="0.28" stroke-width="1.2"/>
  <circle cx="64" cy="64" r="53.6" fill="none" stroke="#3DDC97" stroke-width="2"/>
  <circle cx="64" cy="64" r="12" fill="none" stroke="#3DDC97" stroke-opacity="0.34" stroke-width="0.95"/><circle cx="64" cy="64" r="22" fill="none" stroke="#3DDC97" stroke-opacity="0.42" stroke-width="1.0"/><circle cx="64" cy="64" r="32" fill="none" stroke="#3DDC97" stroke-opacity="0.55" stroke-width="1.05"/><circle cx="64" cy="64" r="41.5" fill="none" stroke="#3DDC97" stroke-opacity="0.7" stroke-width="1.15"/>
  <line x1="64" y1="18" x2="64" y2="110" stroke="#3DDC97" stroke-opacity="0.28" stroke-width="0.85"/>
  <line x1="20" y1="64" x2="108" y2="64" stroke="#3DDC97" stroke-opacity="0.2" stroke-width="0.85"/>
  <line x1="64.00" y1="20.50" x2="64.00" y2="12.40" stroke="#3DDC97" stroke-opacity="0.95" stroke-width="1.9" stroke-linecap="round"/><line x1="70.42" y1="15.22" x2="70.74" y2="12.84" stroke="#3DDC97" stroke-opacity="0.4" stroke-width="1.05" stroke-linecap="round"/><line x1="76.27" y1="18.22" x2="77.36" y2="14.16" stroke="#3DDC97" stroke-opacity="0.62" stroke-width="1.35" stroke-linecap="round"/><line x1="82.83" y1="18.55" x2="83.75" y2="16.33" stroke="#3DDC97" stroke-opacity="0.4" stroke-width="1.05" stroke-linecap="round"/><line x1="85.75" y1="26.33" x2="89.80" y2="19.31" stroke="#3DDC97" stroke-opacity="0.95" stroke-width="1.9" stroke-linecap="round"/><line x1="93.95" y1="24.97" x2="95.41" y2="23.06" stroke="#3DDC97" stroke-opacity="0.4" stroke-width="1.05" stroke-linecap="round"/><line x1="97.52" y1="30.48" x2="100.49" y2="27.51" stroke="#3DDC97" stroke-opacity="0.62" stroke-width="1.35" stroke-linecap="round"/><line x1="103.03" y1="34.05" x2="104.94" y2="32.59" stroke="#3DDC97" stroke-opacity="0.4" stroke-width="1.05" stroke-linecap="round"/><line x1="101.67" y1="42.25" x2="108.69" y2="38.20" stroke="#3DDC97" stroke-opacity="0.95" stroke-width="1.9" stroke-linecap="round"/><line x1="109.45" y1="45.17" x2="111.67" y2="44.25" stroke="#3DDC97" stroke-opacity="0.4" stroke-width="1.05" stroke-linecap="round"/><line x1="109.78" y1="51.73" x2="113.84" y2="50.64" stroke="#3DDC97" stroke-opacity="0.62" stroke-width="1.35" stroke-linecap="round"/><line x1="112.78" y1="57.58" x2="115.16" y2="57.26" stroke="#3DDC97" stroke-opacity="0.4" stroke-width="1.05" stroke-linecap="round"/><line x1="107.50" y1="64.00" x2="115.60" y2="64.00" stroke="#3DDC97" stroke-opacity="0.95" stroke-width="1.9" stroke-linecap="round"/><line x1="112.78" y1="70.42" x2="115.16" y2="70.74" stroke="#3DDC97" stroke-opacity="0.4" stroke-width="1.05" stroke-linecap="round"/><line x1="109.78" y1="76.27" x2="113.84" y2="77.36" stroke="#3DDC97" stroke-opacity="0.62" stroke-width="1.35" stroke-linecap="round"/><line x1="109.45" y1="82.83" x2="111.67" y2="83.75" stroke="#3DDC97" stroke-opacity="0.4" stroke-width="1.05" stroke-linecap="round"/><line x1="101.67" y1="85.75" x2="108.69" y2="89.80" stroke="#3DDC97" stroke-opacity="0.95" stroke-width="1.9" stroke-linecap="round"/><line x1="103.03" y1="93.95" x2="104.94" y2="95.41" stroke="#3DDC97" stroke-opacity="0.4" stroke-width="1.05" stroke-linecap="round"/><line x1="97.52" y1="97.52" x2="100.49" y2="100.49" stroke="#3DDC97" stroke-opacity="0.62" stroke-width="1.35" stroke-linecap="round"/><line x1="93.95" y1="103.03" x2="95.41" y2="104.94" stroke="#3DDC97" stroke-opacity="0.4" stroke-width="1.05" stroke-linecap="round"/><line x1="85.75" y1="101.67" x2="89.80" y2="108.69" stroke="#3DDC97" stroke-opacity="0.95" stroke-width="1.9" stroke-linecap="round"/><line x1="82.83" y1="109.45" x2="83.75" y2="111.67" stroke="#3DDC97" stroke-opacity="0.4" stroke-width="1.05" stroke-linecap="round"/><line x1="76.27" y1="109.78" x2="77.36" y2="113.84" stroke="#3DDC97" stroke-opacity="0.62" stroke-width="1.35" stroke-linecap="round"/><line x1="70.42" y1="112.78" x2="70.74" y2="115.16" stroke="#3DDC97" stroke-opacity="0.4" stroke-width="1.05" stroke-linecap="round"/><line x1="64.00" y1="107.50" x2="64.00" y2="115.60" stroke="#3DDC97" stroke-opacity="0.95" stroke-width="1.9" stroke-linecap="round"/><line x1="57.58" y1="112.78" x2="57.26" y2="115.16" stroke="#3DDC97" stroke-opacity="0.4" stroke-width="1.05" stroke-linecap="round"/><line x1="51.73" y1="109.78" x2="50.64" y2="113.84" stroke="#3DDC97" stroke-opacity="0.62" stroke-width="1.35" stroke-linecap="round"/><line x1="45.17" y1="109.45" x2="44.25" y2="111.67" stroke="#3DDC97" stroke-opacity="0.4" stroke-width="1.05" stroke-linecap="round"/><line x1="42.25" y1="101.67" x2="38.20" y2="108.69" stroke="#3DDC97" stroke-opacity="0.95" stroke-width="1.9" stroke-linecap="round"/><line x1="34.05" y1="103.03" x2="32.59" y2="104.94" stroke="#3DDC97" stroke-opacity="0.4" stroke-width="1.05" stroke-linecap="round"/><line x1="30.48" y1="97.52" x2="27.51" y2="100.49" stroke="#3DDC97" stroke-opacity="0.62" stroke-width="1.35" stroke-linecap="round"/><line x1="24.97" y1="93.95" x2="23.06" y2="95.41" stroke="#3DDC97" stroke-opacity="0.4" stroke-width="1.05" stroke-linecap="round"/><line x1="26.33" y1="85.75" x2="19.31" y2="89.80" stroke="#3DDC97" stroke-opacity="0.95" stroke-width="1.9" stroke-linecap="round"/><line x1="18.55" y1="82.83" x2="16.33" y2="83.75" stroke="#3DDC97" stroke-opacity="0.4" stroke-width="1.05" stroke-linecap="round"/><line x1="18.22" y1="76.27" x2="14.16" y2="77.36" stroke="#3DDC97" stroke-opacity="0.62" stroke-width="1.35" stroke-linecap="round"/><line x1="15.22" y1="70.42" x2="12.84" y2="70.74" stroke="#3DDC97" stroke-opacity="0.4" stroke-width="1.05" stroke-linecap="round"/><line x1="20.50" y1="64.00" x2="12.40" y2="64.00" stroke="#3DDC97" stroke-opacity="0.95" stroke-width="1.9" stroke-linecap="round"/><line x1="15.22" y1="57.58" x2="12.84" y2="57.26" stroke="#3DDC97" stroke-opacity="0.4" stroke-width="1.05" stroke-linecap="round"/><line x1="18.22" y1="51.73" x2="14.16" y2="50.64" stroke="#3DDC97" stroke-opacity="0.62" stroke-width="1.35" stroke-linecap="round"/><line x1="18.55" y1="45.17" x2="16.33" y2="44.25" stroke="#3DDC97" stroke-opacity="0.4" stroke-width="1.05" stroke-linecap="round"/><line x1="26.33" y1="42.25" x2="19.31" y2="38.20" stroke="#3DDC97" stroke-opacity="0.95" stroke-width="1.9" stroke-linecap="round"/><line x1="24.97" y1="34.05" x2="23.06" y2="32.59" stroke="#3DDC97" stroke-opacity="0.4" stroke-width="1.05" stroke-linecap="round"/><line x1="30.48" y1="30.48" x2="27.51" y2="27.51" stroke="#3DDC97" stroke-opacity="0.62" stroke-width="1.35" stroke-linecap="round"/><line x1="34.05" y1="24.97" x2="32.59" y2="23.06" stroke="#3DDC97" stroke-opacity="0.4" stroke-width="1.05" stroke-linecap="round"/><line x1="42.25" y1="26.33" x2="38.20" y2="19.31" stroke="#3DDC97" stroke-opacity="0.95" stroke-width="1.9" stroke-linecap="round"/><line x1="45.17" y1="18.55" x2="44.25" y2="16.33" stroke="#3DDC97" stroke-opacity="0.4" stroke-width="1.05" stroke-linecap="round"/><line x1="51.73" y1="18.22" x2="50.64" y2="14.16" stroke="#3DDC97" stroke-opacity="0.62" stroke-width="1.35" stroke-linecap="round"/><line x1="57.58" y1="15.22" x2="57.26" y2="12.84" stroke="#3DDC97" stroke-opacity="0.4" stroke-width="1.05" stroke-linecap="round"/>
  <path d="M 64 64 L 75.12 29.76 A 36 36 0 0 1 94.53 44.92 Z" fill="#3DDC97" fill-opacity="0.18"/>
  <line x1="64" y1="64" x2="94.53" y2="44.92" stroke="#8EE7BE" stroke-opacity="0.9" stroke-width="1.5"/>
  <line x1="64" y1="64" x2="89.24" y2="31.69" stroke="#8EE7BE" stroke-opacity="0.55" stroke-width="0.9" stroke-dasharray="1.8 1.7"/>
  <line x1="14" y1="64" x2="114" y2="64" stroke="#8EE7BE" stroke-width="1.7" stroke-linecap="round"/>
  <circle cx="64" cy="64" r="2.6" fill="#102018" stroke="#8EE7BE" stroke-width="1.25"/>
  <circle cx="66.95" cy="47.26" r="1.45" fill="#8EE7BE" fill-opacity="0.45"/><circle cx="86.11" cy="57.66" r="1.3" fill="#8EE7BE" fill-opacity="0.34"/><circle cx="59.36" cy="78.27" r="1.2" fill="#8EE7BE" fill-opacity="0.28"/><circle cx="53.40" cy="47.04" r="1.35" fill="#8EE7BE" fill-opacity="0.38"/>
  <circle cx="82.47" cy="40.36" r="8.4" fill="none" stroke="#3DDC97" stroke-opacity="0.55" stroke-width="1"/>
  <circle cx="82.47" cy="40.36" r="2.7" fill="#3DDC97"/>
  <path d="M 84.07 37.76 H 79.87 V 41.96" stroke="#E8F3EE" stroke-width="1.15" stroke-linecap="round" stroke-linejoin="round"/><path d="M 80.87 37.76 H 85.07 V 41.96" stroke="#E8F3EE" stroke-width="1.15" stroke-linecap="round" stroke-linejoin="round"/><path d="M 84.07 42.96 H 79.87 V 38.76" stroke="#E8F3EE" stroke-width="1.15" stroke-linecap="round" stroke-linejoin="round"/><path d="M 80.87 42.96 H 85.07 V 38.76" stroke="#E8F3EE" stroke-width="1.15" stroke-linecap="round" stroke-linejoin="round"/>
</svg>
